Coordinates
version=1
nRows=19
nColumns=24
inDegrees=yes

Units are S.I. units (second, meters, Newtons, ...)
Angles are in degrees.

endheader
time	pelvis_tilt	pelvis_list	pelvis_rotation	pelvis_tx	pelvis_ty	pelvis_tz	hip_flexion_r	hip_adduction_r	hip_rotation_r	knee_angle_r	ankle_angle_r	subtalar_angle_r	mtp_angle_r	hip_flexion_l	hip_adduction_l	hip_rotation_l	knee_angle_l	ankle_angle_l	subtalar_angle_l	mtp_angle_l	lumbar_extension	lumbar_bending	lumbar_rotation
      0.72800000	     -2.90404662	     -0.98284168	      1.00812152	     -0.46646460	      1.00464660	      0.30314688	     13.55253503	      3.33022943	     -0.82858345	    -20.65483111	     10.76754725	     -7.79934231	      3.33722422	     15.64472882	     -1.28590918	     -1.33389112	    -67.87739241	     -7.92406831	     -3.50318348	      7.66218666	    -11.72453635	      7.69802443	      0.08219425
      0.73216667	     -2.84410601	     -0.92047284	      1.09312575	     -0.46140149	      1.00561706	      0.30323356	     12.95539756	      3.29088677	     -0.79160665	    -20.21281089	     10.72700090	     -7.97201563	      3.27978973	     16.13408746	     -1.24716229	     -1.31652877	    -67.83654493	     -7.36341529	     -3.86981756	      7.50648587	    -11.85684459	      7.51204558	      0.51064415
      0.73633333	     -2.80804754	     -0.81459229	      1.17173937	     -0.45633926	      1.00652584	      0.30329268	     12.40326377	      3.19783502	     -0.77567150	    -19.81780593	     10.74142249	     -8.07423519	      3.21064676	     16.63112202	     -1.15295576	     -1.30856157	    -67.72046757	     -6.76430065	     -4.22113400	      7.31695373	    -11.93397135	      7.31569483	      0.74270110
      0.74050000	     -2.80819362	     -0.69766809	      1.25463182	     -0.45129762	      1.00737065	      0.30331218	     11.90578959	      3.08573258	     -0.79171691	    -19.45594084	     10.77421119	     -8.11584426	      3.18540668	     17.15912963	     -1.03848176	     -1.30025933	    -67.54436003	     -6.14962856	     -4.57562548	      7.25856725	    -11.96065079	      7.12741524	      0.83706687
      0.74466667	     -2.75635947	     -0.58003892	      1.32455495	     -0.44620011	      1.00832926	      0.30336613	     11.31357098	      2.98576846	     -0.75328360	    -19.01058353	     10.74789201	     -8.26738720	      3.12476639	     17.60071203	     -0.93278769	     -1.31094541	    -67.27376902	     -5.58523409	     -4.91458356	      7.10998125	    -12.05101210	      6.91622982	      1.12355665
      0.74883333	     -2.77100021	     -0.44410569	      1.39434812	     -0.44114465	      1.00913128	      0.30337423	     10.83004838	      2.85331313	     -0.76488480	    -18.64515463	     10.78103761	     -8.29450929	      3.10662388	     18.11072682	     -0.79793835	     -1.32433773	    -66.96104030	     -4.96485485	     -5.23375929	      7.07384253	    -12.03791745	      6.73152212	      1.19555941
      0.75300000	     -2.74846757	     -0.29850213	      1.46649395	     -0.43608896	      1.00999307	      0.30337510	     10.29915302	      2.71295550	     -0.77570052	    -18.26154718	     10.75955727	     -8.37801732	      3.07842065	     18.55941773	     -0.64917470	     -1.33478946	    -66.56847483	     -4.34967186	     -5.55578186	      7.01608992	    -12.09748063	      6.50822756	      1.34680534
      0.75716667	     -2.66568931	     -0.16402928	      1.52799219	     -0.43100674	      1.01096484	      0.30343032	      9.66128032	      2.60164474	     -0.70755346	    -17.78426802	     10.70681697	     -8.55413953	      3.00980093	     18.91953635	     -0.52609783	     -1.35969029	    -66.09485728	     -3.80428841	     -5.82824910	      6.85057131	    -12.24075060	      6.25305961	      1.66674798
      0.76133333	     -2.62713750	     -0.01907450	      1.59955344	     -0.42596502	      1.01183107	      0.30342443	      9.09869926	      2.46671446	     -0.69558220	    -17.36396291	     10.66037423	     -8.66434040	      2.94809043	     19.31996076	     -0.37566002	     -1.36587274	    -65.57280709	     -3.20943394	     -6.08438390	      6.70036485	    -12.32616298	      6.02203249	      1.83076326
      0.76550000	     -2.62938012	      0.10952454	      1.66199420	     -0.42091657	      1.01259671	      0.30343371	      8.58391822	      2.35419470	     -0.65897151	    -16.95414222	     10.63371341	     -8.82409712	      1.99408870	     19.75287747	     -0.24966449	     -1.38889301	    -65.00893773	     -2.53837567	     -6.29314105	      4.02883392	    -12.34401932	      5.82984190	      1.96735352
      0.76966667	     -2.59116663	      0.26991095	      1.73039486	     -0.41586342	      1.01341827	      0.30338170	      8.02789715	      2.19443249	     -0.68403497	    -16.54777994	     10.59348301	     -8.85138756	      1.97791038	     20.11441233	     -0.07583939	     -1.39657867	    -64.35332902	     -1.97183641	     -6.49609638	      4.02494734	    -12.41270797	      5.59963111	      2.11521505
      0.77383333	     -2.58660095	      0.42431087	      1.79849235	     -0.41082323	      1.01416252	      0.30332136	      7.52095680	      2.04134880	     -0.71499797	    -16.16843749	     10.53080067	     -8.91504310	      1.96408156	     20.49827943	      0.09446109	     -1.40314247	    -63.64463600	     -1.38156363	     -6.71353510	      4.01878454	    -12.44628039	      5.37627774	      2.21239501
      0.77800000	     -2.52695339	      0.56050204	      1.86881574	     -0.40576665	      1.01495408	      0.30328712	      6.92205270	      1.91875189	     -0.69660574	    -15.71807021	     10.47688072	     -9.04786283	      1.94040120	     20.80517384	      0.23457196	     -1.41175612	    -62.87473682	     -0.85529093	     -6.86864351	      3.98573489	    -12.54800998	      5.15592473	      2.39425919
      0.78216667	     -2.49877907	      0.70669544	      1.93877437	     -0.40072672	      1.01567868	      0.30321470	      6.37430603	      1.77929712	     -0.70464700	    -15.30335044	     10.40073110	     -9.15666192	      1.91573379	     21.12686258	      0.39715849	     -1.41109288	    -62.04321506	     -0.31791085	     -7.01597974	      3.94096380	    -12.60908423	      4.94360871	      2.52318363
      0.78633333	     -2.46641364	      0.83053051	      2.01051994	     -0.39569208	      1.01636381	      0.30313247	      5.82021664	      1.66519497	     -0.70796018	    -14.88277267	     10.30882787	     -9.27865179	      1.88763858	     21.43071530	      0.53801928	     -1.39809893	    -61.16447752	      0.20923164	     -7.13952454	      3.87531182	    -12.67811353	      4.76133141	      2.64871083
      0.79050000	     -2.43066532	      0.96644180	      2.08867976	     -0.39065385	      1.01703874	      0.30302177	      5.26380353	      1.53540368	     -0.73514210	    -14.46614848	     10.21895468	     -9.38553371	      1.86246254	     21.70777932	      0.69795303	     -1.37818658	    -60.21603288	      0.69584579	     -7.24435419	      3.80899741	    -12.74389145	      4.56341475	      2.74606210
      0.79466667	     -2.40569689	      1.08597294	      2.16393019	     -0.38562155	      1.01764699	      0.30290744	      4.72047936	      1.42498204	     -0.74835228	    -14.05073636	     10.11852890	     -9.50634353	      1.83615915	     21.98130939	      0.84167495	     -1.35134191	    -59.22078038	      1.16493619	     -7.32576717	      3.72791413	    -12.80110728	      4.38927606	      2.85255724
      0.79883333	     -2.39658728	      1.21599580	      2.23817704	     -0.38060228	      1.01819785	      0.30274758	      4.21459637	      1.29577326	     -0.79599746	    -13.67911777	     10.00580275	     -9.58191202	      1.81772870	     22.24956493	      1.00908077	     -1.31037051	    -58.16355439	      1.61927047	     -7.40428711	      3.67263890	    -12.83377741	      4.22015963	      2.92333109
      0.80300000	     -2.34164244	      1.30460121	      2.31110938	     -0.37556167	      1.01878724	      0.30263113	      3.61677570	      1.22644501	     -0.76468192	    -13.21190818	      9.87509020	     -9.74899473	      1.78380415	     22.45288181	      1.12115924	     -1.26767840	    -57.06086719	      2.02430001	     -7.47641247	      3.53230814	    -12.94081529	      4.07745617	      3.05068386
